# xmcd
#
# Track frame offsets: 
#        150
#        19769
#        38158
#        58009
#        73870
#        93272
#        107657
#        132170
#        150369
#        166928
#        189840
#        207359
#        219236
#        232546
#        253940
#        277041
#
# Disc length: 3931 seconds
#
# Revision: 1
# Processed by: cddbd v1.5.2PL0 Copyright (c) Steve Scherf et al.
# Submitted via: ExactAudioCopyFreeDBPlugin 1.0
#
DISCID=d20f5910
DTITLE=Various Artist - pepper cake Labelsampler
DYEAR=2007
DGENRE=Blues
TTITLE0=Henrik Freischlader Band - The Blues
TTITLE1=Swiss Blues Authority feat. Bernard Allison - You don´t love m
TTITLE1=e
TTITLE2=Mark Selby - Reason enough
TTITLE3=Innes Sibun - Natural high
TTITLE4=Charlie A´Court - Bring on the storm
TTITLE5=Rotta Rudy - Papa grooves Funk
TTITLE6=Paul Camilleri - Another sad Goodbye
TTITLE7=The Tony Nash Trio - Dancing with the devil
TTITLE8=Paddy Milner - I live the life I love
TTITLE9=Rotta Rudy - I´m in the groove
TTITLE10=Till Kersting - If you ever had it better
TTITLE11=The Blues Band - Sticks and stones
TTITLE12=Richie Arndt and The Bluenatics - Heading towards Las Vegas
TTITLE13=Charlie A´Court - Broken man
TTITLE14=Mark Otis Selby - Last Goodbye
TTITLE15=Raphael Wressing and Erico Crivellaro - Banana Boogaloo
EXTD=
EXTT0=
EXTT1=
EXTT2=
EXTT3=
EXTT4=
EXTT5=
EXTT6=
EXTT7=
EXTT8=
EXTT9=
EXTT10=
EXTT11=
EXTT12=
EXTT13=
EXTT14=
EXTT15=
PLAYORDER=
